<?xml version="1.0" encoding="UTF-8" standalone="no"?>
<svg width="186px" height="48px" viewBox="0 0 186 48" version="1.1" xmlns="http://www.w3.org/2000/svg" xmlns:xlink="http://www.w3.org/1999/xlink" xmlns:sketch="http://www.bohemiancoding.com/sketch/ns">
    <!-- Generator: Sketch 3.4.4 (17249) - http://www.bohemiancoding.com/sketch -->
    <title>logo_small</title>
    <desc>Created with Sketch.</desc>
    <defs/>
    <g id="Middleware" stroke="none" stroke-width="1" fill="none" fill-rule="evenodd" sketch:type="MSPage">
        <g id="content" sketch:type="MSArtboardGroup" transform="translate(-48.000000, -6.000000)" fill="#FFFFFF">
            <g id="logo_small" sketch:type="MSLayerGroup" transform="translate(48.000000, 6.000000)">
                <g id="logo_classic_bg" sketch:type="MSShapeGroup">
                    <g id="Page-1">
                        <g id="logo_classic_bg">
                            <path d="M61.7181816,25.7018947 L64.758066,25.7018947 C65.641989,25.7018947 66.3160176,25.4602105 66.7776168,24.9747368 C67.2400614,24.4896842 67.4710722,23.8665263 67.4710722,23.1048421 C67.4710722,22.3267369 67.2400614,21.6896842 66.7776168,21.1928421 C66.3160176,20.695579 65.641989,20.4471579 64.758066,20.4471579 L61.7181816,20.4471579 L61.7181816,25.7018947 L61.7181816,25.7018947 Z M61.7181816,28.8286316 L61.7181816,34.8286316 L57.6296684,34.8286316 L57.6296684,17.320421 L64.758066,17.320421 C66.8401206,17.320421 68.4926724,17.8522105 69.7144542,18.9136842 C70.9375032,19.9768421 71.548605,21.3654737 71.548605,23.0808421 C71.548605,24.8046316 70.9375032,26.1936842 69.7144542,27.248 C68.4926724,28.3014737 66.8401206,28.8286316 64.758066,28.8286316 L61.7181816,28.8286316 L61.7181816,28.8286316 Z M87.674604,17.3205053 L87.674604,28.7925053 C87.674604,30.7891369 87.0090222,32.3360842 85.678281,33.4346105 C84.3479622,34.5322948 82.6050336,35.0809263 80.4507612,35.0809263 C78.2715726,35.0809263 76.5147066,34.5322948 75.179742,33.4346105 C73.8451998,32.3360842 73.1770842,30.7891369 73.1770842,28.7925053 L73.1770842,17.3205053 L77.26602,17.3205053 L77.26602,28.7925053 C77.26602,29.8670316 77.5439088,30.6624 78.0984198,31.1798737 C78.6529302,31.6960842 79.4371848,31.9550316 80.4507612,31.9550316 C81.455469,31.9550316 82.228743,31.6986105 82.771851,31.1853473 C83.3145366,30.6720842 83.5856682,29.8746105 83.5856682,28.7925053 L83.5856682,17.3205053 L87.674604,17.3205053 L87.674604,17.3205053 Z M94.2985788,31.7026948 L102.295696,31.7026948 L102.295696,34.8285895 L89.2813758,34.8285895 L89.2813758,33.0012211 L97.133214,20.4471158 L89.2454784,20.4471158 L89.2454784,17.3203789 L102.187581,17.3203789 L102.187581,19.0761684 L94.2985788,31.7026948 L94.2985788,31.7026948 Z M108.588695,31.7026948 L116.58539,31.7026948 L116.58539,34.8285895 L103.571915,34.8285895 L103.571915,33.0012211 L111.423753,20.4471158 L103.535173,20.4471158 L103.535173,17.3203789 L116.477275,17.3203789 L116.477275,19.0761684 L108.588695,31.7026948 L108.588695,31.7026948 Z M122.203264,31.7026948 L129.765388,31.7026948 L129.765388,34.8285895 L118.113905,34.8285895 L118.113905,17.3203789 L122.203264,17.3203789 L122.203264,31.7026948 L122.203264,31.7026948 Z M142.157203,27.3376 L135.269951,27.3376 L135.269951,31.7026526 L143.387009,31.7026526 L143.387009,34.8285473 L131.18186,34.8285473 L131.18186,17.3203369 L143.411081,17.3203369 L143.411081,20.4470737 L135.269951,20.4470737 L135.269951,24.2108632 L142.157203,24.2108632 L142.157203,27.3376 L142.157203,27.3376 Z M155.724597,34.8286316 L151.660156,34.8286316 L151.660156,17.320421 L155.724597,17.320421 L155.724597,34.8286316 L155.724597,34.8286316 Z M170.562594,20.4471579 L165.930973,20.4471579 L165.930973,34.8286316 L161.842037,34.8286316 L161.842037,20.4471579 L157.247158,20.4471579 L157.247158,17.320421 L170.562594,17.320421 L170.562594,20.4471579 L170.562594,20.4471579 Z M185.442908,28.6846316 L185.46698,28.7562105 C185.386317,30.8088421 184.776482,32.3755789 183.639587,33.4585263 C182.50058,34.5406316 180.850985,35.0808421 178.688267,35.0808421 C176.517524,35.0808421 174.752634,34.4155789 173.393597,33.0850526 C172.03456,31.7545263 171.355042,30.0269474 171.355042,27.9027368 L171.355042,24.2471579 C171.355042,22.1305263 172.007954,20.4050527 173.315468,19.0707368 C174.622136,17.736 176.319454,17.0682105 178.411222,17.0682105 C180.63011,17.0682105 182.326161,17.6256842 183.499375,18.7393684 C184.674701,19.8543158 185.337327,21.4370527 185.490208,23.4896842 L185.46698,23.5616842 L181.498407,23.5616842 C181.441816,22.4231579 181.186732,21.5776842 180.732312,21.0244211 C180.278314,20.4711579 179.503773,20.1945263 178.411222,20.1945263 C177.485912,20.1945263 176.758249,20.5654737 176.227388,21.3073684 C175.697372,22.0492631 175.43173,23.0206316 175.43173,24.2231579 L175.43173,27.9027368 C175.43173,29.1132632 175.721444,30.0917895 176.30045,30.8366316 C176.879033,31.5827368 177.67469,31.9553684 178.688267,31.9553684 C179.669324,31.9553684 180.364891,31.6943158 180.774967,31.1730526 C181.184621,30.6526316 181.418165,29.8227368 181.473912,28.6846316 L185.442908,28.6846316 L185.442908,28.6846316 Z M7.01327232,41.0086316 C-2.33781376,31.6861052 -2.33781376,16.572 7.01327232,7.24989474 C16.3626692,-2.07178948 31.5232368,-2.07136842 40.8730559,7.24989474 C50.2237197,16.5728421 50.2228751,31.6852631 40.8730559,41.0077895 C31.5228145,50.3303158 16.3639361,50.3311579 7.01327232,41.0086316 L7.01327232,41.0086316 Z M23.3152958,27.0589895 C23.3152958,27.0589895 27.6246845,26.4518316 28.869694,24.0530947 C30.1155482,21.6560421 31.5827,16.7970947 31.5827,16.7970947 C24.947576,16.7966737 24.3563232,19.1141474 24.3563232,19.1141474 C24.3563232,19.1141474 20.1626512,30.8046737 18.6672038,35.1179368 C7.0478184,35.1179368 8.90477466,29.3958316 8.90477466,29.3958316 L14.7167902,13.1406737 L26.4920129,13.1406737 L25.7056466,15.4817263 C25.7056466,15.4817263 26.6651656,13.1406737 33.1550102,13.1406737 C33.1550102,13.1406737 39.808294,13.1697263 39.0265733,15.4939369 C38.2461196,17.8173053 35.7362512,24.7874105 35.7362512,24.7874105 C34.8966722,27.0589895 29.984628,27.0392 23.3152958,27.0589895 L23.3152958,27.0589895 Z" id="Fill-1"/>
                        </g>
                    </g>
                </g>
            </g>
        </g>
    </g>
</svg>